<svg width="35" height="29" viewBox="0 0 35 29" fill="none" xmlns="http://www.w3.org/2000/svg">
<path d="M31.4906 28.2394H3.41875C1.6214 28.2394 0.146118 26.7641 0.146118 24.9667V4.17774C0.146118 2.3804 1.6214 0.905117 3.41875 0.905117H31.4906C33.288 0.905117 34.7633 2.3804 34.7633 4.17774V24.9667C34.7736 26.7641 33.2984 28.2394 31.4906 28.2394Z" fill="#F6C859"/>
<path d="M13.4756 24.5927C13.3301 24.5927 13.1847 24.5096 13.1224 24.3745C13.0185 24.1771 13.1016 23.9382 13.299 23.8343C13.8808 23.533 14.6704 22.9824 15.1275 22.0162C15.7093 20.7902 15.5535 19.4604 15.3145 19.3461C15.2522 19.3149 15.0132 19.4396 14.8678 19.5123C14.4834 19.7097 13.9639 19.9695 13.3613 19.7617C12.7691 19.5539 12.4782 19.024 12.3328 18.7747C11.4289 17.1124 11.1484 12.7801 12.1042 10.6399C12.4263 9.92303 12.8522 9.50745 13.3925 9.37239C13.9431 9.24772 14.3899 9.47629 14.7431 9.66329C15.034 9.81913 15.1898 9.88147 15.2833 9.82952C15.6574 9.60096 15.647 8.22957 15.1275 7.13869C14.6704 6.17249 13.8808 5.61147 13.299 5.32057C13.1016 5.21667 13.0289 4.97772 13.1224 4.78032C13.2263 4.58293 13.4652 4.5102 13.6626 4.60371C14.3483 4.95694 15.2937 5.62186 15.8444 6.79585C16.395 7.94906 16.6547 9.93341 15.6885 10.5152C15.2002 10.8061 14.7431 10.5672 14.3691 10.3802C14.0886 10.2243 13.8288 10.0996 13.5691 10.1516C13.2159 10.2347 12.9769 10.6399 12.8315 10.962C11.9899 12.8424 12.2289 16.9254 13.0289 18.3903C13.1639 18.6396 13.3301 18.9098 13.6107 19.0033C13.8808 19.0968 14.1301 18.9825 14.4937 18.7955C14.847 18.6189 15.2418 18.4111 15.6573 18.6189C16.5508 19.0552 16.4989 20.9876 15.8444 22.359C15.2937 23.5226 14.3483 24.1979 13.6626 24.5512C13.6003 24.5823 13.5379 24.5927 13.4756 24.5927Z" fill="#7D662D"/>
<path d="M12.2704 11.3671H5.04987C4.83169 11.3671 4.64468 11.1905 4.64468 10.962C4.64468 10.7438 4.8213 10.5568 5.04987 10.5568H12.2704C12.4886 10.5568 12.6756 10.7334 12.6756 10.962C12.6756 11.1905 12.4886 11.3671 12.2704 11.3671Z" fill="#7D662D"/>
<path d="M12.2704 18.5877H5.04987C4.83169 18.5877 4.64468 18.4111 4.64468 18.1825C4.64468 17.9643 4.8213 17.7773 5.04987 17.7773H12.2704C12.4886 17.7773 12.6756 17.9539 12.6756 18.1825C12.6756 18.4007 12.4886 18.5877 12.2704 18.5877Z" fill="#7D662D"/>
<path d="M21.8909 24.5927C21.8286 24.5927 21.7663 24.5823 21.7039 24.5512C21.0182 24.1979 20.0728 23.533 19.5222 22.359C18.8676 20.9876 18.8157 19.0552 19.7092 18.6189C20.1247 18.4215 20.5195 18.6189 20.8728 18.7955C21.2364 18.9825 21.4857 19.0968 21.7559 19.0033C22.0572 18.8994 22.2338 18.5773 22.3377 18.3903C23.1376 16.9254 23.3766 12.8424 22.5351 10.962C22.3896 10.6399 22.1403 10.2347 21.7974 10.1516C21.5792 10.0996 21.4442 9.88147 21.4961 9.67368C21.5481 9.45551 21.7663 9.32044 21.974 9.37239C22.5143 9.49706 22.9506 9.92302 23.2623 10.6399C24.2181 12.7905 23.948 17.1124 23.0337 18.7747C22.8987 19.024 22.6078 19.5539 22.0156 19.7617C21.413 19.9695 20.8832 19.7097 20.5091 19.5123C20.3637 19.4396 20.1144 19.3149 20.0624 19.3461C19.8235 19.4604 19.6676 20.7902 20.2494 22.0162C20.7065 22.9824 21.4961 23.5434 22.0779 23.8343C22.2753 23.9382 22.3481 24.1771 22.2545 24.3745C22.1818 24.52 22.0364 24.5927 21.8909 24.5927Z" fill="#7D662D"/>
<path d="M20.291 9.76718C20.1247 9.76718 19.9689 9.66329 19.9066 9.49706C19.0443 6.92052 21.0598 4.93616 21.7039 4.60371C21.9013 4.49981 22.1403 4.58293 22.2442 4.78032C22.3481 4.97772 22.2649 5.21667 22.0675 5.32057C21.7766 5.46602 19.9273 7.05558 20.665 9.24772C20.7377 9.45551 20.6234 9.68407 20.4156 9.7568C20.3741 9.7568 20.3325 9.76718 20.291 9.76718Z" fill="#7D662D"/>
<path d="M30.3166 11.3671H23.0961C22.8779 11.3671 22.6909 11.1905 22.6909 10.962C22.6909 10.7438 22.8675 10.5568 23.0961 10.5568H30.3166C30.5348 10.5568 30.7218 10.7334 30.7218 10.962C30.7114 11.1905 30.5348 11.3671 30.3166 11.3671Z" fill="#7D662D"/>
<path d="M30.3166 18.5877H23.0961C22.8779 18.5877 22.6909 18.4111 22.6909 18.1825C22.6909 17.9643 22.8675 17.7773 23.0961 17.7773H30.3166C30.5348 17.7773 30.7218 17.9539 30.7218 18.1825C30.7114 18.4007 30.5348 18.5877 30.3166 18.5877Z" fill="#7D662D"/>
</svg>