<?xml version="1.0" standalone="no"?>
<!DOCTYPE svg PUBLIC "-//W3C//DTD SVG 20010904//EN"
 "http://www.w3.org/TR/2001/REC-SVG-20010904/DTD/svg10.dtd">
<svg version="1.0" xmlns="http://www.w3.org/2000/svg"
 width="512.000000pt" height="512.000000pt" viewBox="0 0 512.000000 512.000000"
 preserveAspectRatio="xMidYMid meet">

<g transform="translate(0.000000,512.000000) scale(0.100000,-0.100000)"
fill="#000000" stroke="none">
<path d="M1055 4146 c-118 -51 -124 -224 -11 -289 15 -9 143 -13 478 -17 441
-5 457 -6 484 -26 53 -39 69 -71 69 -134 0 -63 -16 -95 -69 -134 -27 -21 -41
-21 -646 -26 -605 -5 -619 -5 -646 -26 -53 -39 -69 -71 -69 -134 0 -63 16 -95
69 -134 27 -21 38 -21 886 -26 848 -5 859 -5 886 -26 53 -39 69 -71 69 -134 0
-63 -16 -95 -69 -134 -27 -21 -41 -21 -646 -26 -605 -5 -619 -5 -646 -26 -53
-39 -69 -71 -69 -134 0 -63 16 -95 69 -134 26 -20 43 -21 406 -26 363 -5 380
-6 406 -26 53 -39 69 -71 69 -134 0 -63 -16 -95 -69 -134 -27 -21 -40 -21
-726 -26 -686 -5 -699 -5 -726 -26 -53 -39 -69 -71 -69 -134 0 -63 16 -95 69
-134 25 -19 45 -21 246 -26 201 -5 221 -7 246 -26 53 -39 69 -71 69 -134 0
-63 -16 -95 -69 -134 -24 -18 -46 -22 -166 -26 -150 -5 -168 -12 -214 -74 -29
-39 -29 -133 0 -172 51 -69 49 -69 333 -72 l258 -3 12 -38 c30 -103 136 -212
243 -253 204 -77 466 30 573 235 l30 57 611 0 611 0 12 -39 c30 -103 136 -212
243 -253 204 -77 466 30 573 235 l30 57 173 0 c185 0 219 7 262 51 12 13 26
35 32 49 13 35 140 1189 132 1214 -9 33 -365 838 -381 863 -8 12 -34 31 -57
43 -41 19 -59 20 -485 20 l-442 0 6 43 c15 114 45 402 45 440 0 49 -27 97 -73
131 -28 21 -29 21 -1175 23 -938 2 -1153 0 -1177 -11z m3276 -1281 c159 -352
153 -331 133 -437 l-6 -28 -364 0 c-311 0 -369 2 -404 16 -43 17 -76 55 -90
103 -9 34 43 540 61 582 14 36 60 78 95 89 16 5 118 8 227 7 l199 -2 149 -330z
m-2557 -1275 c49 -18 72 -116 45 -187 -22 -58 -108 -123 -163 -123 -14 0 -40
13 -57 28 -77 69 -34 223 76 273 46 21 64 23 99 9z m2080 0 c49 -18 72 -116
45 -187 -22 -58 -108 -123 -163 -123 -14 0 -40 13 -57 28 -77 69 -34 223 76
273 46 21 64 23 99 9z"/>
<path d="M415 2866 c-97 -43 -124 -171 -54 -251 42 -47 84 -57 221 -53 126 3
147 11 192 72 29 39 29 133 0 172 -46 62 -65 69 -202 72 -91 1 -136 -2 -157
-12z"/>
</g>
</svg>
